<?xml version="1.0" encoding="utf-8"?>
<!-- Generator: Adobe Illustrator 19.1.0, SVG Export Plug-In . SVG Version: 6.00 Build 0)  -->
<svg version="1.1" id="Layer_1" xmlns="http://www.w3.org/2000/svg" xmlns:xlink="http://www.w3.org/1999/xlink" x="0px" y="0px"
	 viewBox="0 0 80 80" style="enable-background:new 0 0 80 80;" xml:space="preserve">
<style type="text/css">
	.st0{fill:#EC008C;}
</style>
<polygon class="st0" points="71.2,49.4 64.4,49.8 68.7,46.2 70.7,39.3 70.9,36 73.1,36.4 76.7,35.5 75.3,34.1 72.9,32.3 69.9,32.4 
	68.6,33.1 67.1,31.3 61.1,30.7 50.8,31.4 33.3,29.2 30.1,25.4 29.2,21.5 30.9,18.4 34.7,13.8 34.5,11.7 28.9,12.8 25.2,12.8 
	26.8,11.2 28.4,8.2 27.7,5.3 27,6.6 24,9.3 23.8,12.8 23.7,12.8 20.5,14.6 18.4,12.4 14.3,12.1 15.7,16.3 19.8,16.2 19.6,16.8 
	20.1,27.3 23.9,44.2 23.9,45.7 14.8,49.9 2.6,62.6 4.6,63.3 6.1,61.6 7.7,60.4 16.4,51.1 26.3,50.4 27,51 19.3,53.3 7.4,67.1 
	9.6,67.3 11.8,64.4 20.3,55.5 36.5,52.6 36.1,50.1 38.6,50.6 43.2,50.2 50.6,46.5 56.2,45.7 54.9,51 55.6,53.6 60.3,54.4 70.1,53 
	77.9,65.2 78.8,63.6 "/>
</svg>
