<?xml version="1.0" encoding="utf-8"?>
<!-- Generator: Adobe Illustrator 19.1.0, SVG Export Plug-In . SVG Version: 6.00 Build 0)  -->
<svg version="1.1" id="Layer_1" xmlns="http://www.w3.org/2000/svg" xmlns:xlink="http://www.w3.org/1999/xlink" x="0px" y="0px"
	 viewBox="0 0 1024 768" style="enable-background:new 0 0 1024 768;" xml:space="preserve">
<style type="text/css">
	.st0{fill:none;stroke:#FFFFFF;stroke-width:0.75;stroke-miterlimit:10;}
</style>
<g>
	<polygon class="st0" points="24.9,548.7 24.9,534.7 27.8,531.2 27.8,426.4 26.3,421.1 26.3,403.1 32.4,394.9 37.7,394.9 
		37.7,400.2 41.8,394.9 46.4,394.9 46.4,399 51.1,394.9 56.3,394.9 56.3,400.2 61,399 61,394.9 76.7,394.9 76.7,399 81.4,392 
		88.4,392 88.4,397.8 93.6,392 101.2,392 101.2,396.7 105.8,389.1 114,389.1 116.3,392 119.8,389.1 129.1,389.1 129.1,392 
		133.2,389.1 140.8,389.1 143.1,392 143.1,385.6 154.7,385.6 157.1,392 160.6,385.6 167,385.6 167,390.3 171.1,385.6 182.7,385.6 
		182.7,389.7 186.2,385.6 194.9,382.7 194.9,387.9 201.9,382.7 210.1,382.7 212.4,387.3 215.3,382.7 226.4,382.7 226.4,387.3 
		231,382.7 239.8,382.7 239.8,386.8 243.9,378 255.5,378 255.5,384.4 260.2,378 268.9,378 272.4,382.7 272.4,378 285.8,378 
		288.7,381.5 288.7,376.3 303.3,376.3 303.3,380.4 307.3,376.3 316.7,373.9 319,379.2 321.9,373.9 336.5,378 336.5,373.9 
		348.1,373.9 351,379.2 351,373.9 362.7,373.9 362.7,355.9 359.7,348.9 359.7,318.6 369.6,309.3 373.7,312.2 376.6,309.3 
		384.2,305.8 384.2,310.5 390.6,305.8 400.5,305.8 400.5,311.1 406.3,311.1 406.3,305.8 418,305.8 418,310.5 423.8,305.8 
		433.1,309.9 444.2,317.5 444.2,351.2 441.3,355.9 441.3,371 447.7,368.7 451.8,371 451.8,379.2 457.6,377.4 457.6,366.4 
		461.1,362.3 468.7,363.5 468.7,369.9 475.1,369.9 475.1,356.5 502.4,355.9 504.8,371.6 508.8,371 508.8,363.5 520.5,363.5 
		520.5,374.5 526.9,372.2 526.9,367 533.9,366.4 533.9,372.8 536.8,372.8 536.8,354.7 532.7,348.3 532.7,315.1 542.6,308.1 
		549.6,305.8 549.6,315.1 554.8,305.8 561.3,302.3 566.5,302.3 566.5,309.9 570,310.5 573.5,302.3 584.5,302.3 586.9,310.5 
		590.4,307 590.4,302.3 601.4,302.3 601.4,309.3 606.7,309.3 606.7,305.2 616.6,313.4 619.5,317.5 619.5,346 616,355.3 615.4,370.5 
		625.3,371 627.6,376.9 631.7,374.5 631.7,369.9 642.8,369.9 642.8,375.1 649.2,375.7 649.2,370.5 660.8,371 663.8,379.2 666.7,371 
		677.1,371 681.2,378.6 685.3,371.6 695.8,371.6 695.8,380.4 701,378 701,371.6 712.7,371.6 712.7,377.4 718.5,378 718.5,372.8 
		730.1,372.2 730.1,376.9 734.8,378 734.8,373.4 747.6,373.4 750.5,382.7 753.4,373.9 763.3,374.5 766.8,379.8 769.7,379.8 
		769.7,375.7 781.4,375.7 784.3,382.7 786.6,376.3 796.5,376.3 800,383.3 804.7,383.8 804.7,377.4 814,376.9 816.9,383.3 
		820.4,377.4 830.3,379.2 832.6,383.3 837.9,378.6 846,379.2 846,385 849.5,384.4 852.4,379.2 860.6,380.4 863.5,386.2 867,382.1 
		876.9,380.9 879.2,386.8 883.3,383.3 892.6,382.1 892.6,387.9 896.1,388.5 896.1,382.7 909.5,383.8 909.5,392 913.6,385 921.2,385 
		925.2,392 928.7,387.3 938.1,386.8 940.4,392 943.3,386.8 956.7,386.8 959,392 963.1,387.3 970.1,387.3 973,392 975.9,387.9 
		984.7,388.5 986.4,392 991.6,388.5 999.8,395.5 999.8,417 996.3,420.5 999.8,546.3 974.8,548.7 946.2,548.7 776.7,554.5 
		708.6,557.4 605.5,557.4 565.3,560.3 543.8,563.8 536.2,560.3 509.4,558.6 455.8,558 426.7,561.5 397,561.5 363.2,556.8 
		320.1,556.8 280.5,557.4 217.1,556.2 186.2,556.2 163.5,558.6 134.4,553.9 91.8,554.5 45.8,553.9 35.9,558 27.8,556.2 	"/>
	<polyline class="st0" points="549.6,305.8 550.2,280.2 550.2,258.1 546.1,249.9 546.1,220.2 550.2,213.2 556,209.7 556,212.6 
		560.1,209.7 565.3,209.7 567.7,213.2 567.7,205.6 576.4,205.6 576.4,212.6 580.5,212.6 580.5,205.6 588.6,209.1 594.5,205.6 
		598.5,210.9 604.9,215 610.2,223.1 610.2,255.7 604.4,262.7 601.4,302.3 	"/>
	<path class="st0" d="M494.3,367.8c0,0-10.5-2-13.4,4.7c0,0-4.1,14.3,6.7,13.1C487.6,385.6,505.9,385,494.3,367.8z"/>
	<path class="st0" d="M581.6,260.4c0,0-15.1-1.2-11.1,13.4c0,0,6.4,11.1,15.1,0C585.7,273.8,591.5,266.2,581.6,260.4z"/>
	<polygon class="st0" points="47,441.5 38.3,441.5 38.3,463.6 49.3,463.6 	"/>
	<polygon class="st0" points="97.1,437.7 87.2,441.5 87.2,463.6 97.1,463.6 	"/>
	<polygon class="st0" points="125,437.7 125,461.3 132.6,461.3 134.9,437.7 	"/>
	<polygon class="st0" points="163.5,437.7 163.5,458.4 174,458.4 174,435.4 	"/>
	<rect x="206" y="434.2" class="st0" width="9.9" height="24.2"/>
	<rect x="247.9" y="433.1" class="st0" width="12.8" height="25.3"/>
	<polygon class="st0" points="306.2,429.9 295.7,429.9 295.7,458.4 306.2,456.1 309.1,429.9 	"/>
	<rect x="342.3" y="429.9" class="st0" width="10.5" height="22.7"/>
	<polygon class="st0" points="43.8,501.5 38.3,501.5 38.3,532.9 47,532.9 47,501.5 	"/>
	<rect x="125" y="501.5" class="st0" width="9.9" height="33.2"/>
	<rect x="163.5" y="501.5" class="st0" width="10.5" height="31.4"/>
	<rect x="206" y="501.5" class="st0" width="9.9" height="33.2"/>
	<rect x="82.2" y="501.5" class="st0" width="9.9" height="33.2"/>
	<rect x="247.9" y="498.6" class="st0" width="12.8" height="34.4"/>
	<polygon class="st0" points="309.1,498.6 295.7,498.6 293.4,532.9 309.1,532.9 	"/>
	<rect x="342.3" y="498.6" class="st0" width="10.5" height="36.1"/>
	<polygon class="st0" points="531,424 447.1,424 442.4,421.7 442.4,412.4 447.7,406.6 531,408.3 536.8,415.3 536.8,421.7 	"/>
	<polygon class="st0" points="512.3,427.5 512.3,452.6 466.9,452.6 466.9,429.9 	"/>
	<polyline class="st0" points="453,558.3 453,501.5 489.1,488.1 519.3,496.3 525.1,501.5 525.1,558.3 	"/>
	<polygon class="st0" points="627.1,427.5 627.1,451.4 641.6,452.6 641.6,427.5 	"/>
	<rect x="678.9" y="429.9" class="st0" width="11.1" height="25.6"/>
	<rect x="729" y="427.5" class="st0" width="12.2" height="28"/>
	<rect x="777.3" y="429.9" class="st0" width="11.6" height="28.5"/>
	<rect x="825.1" y="433.1" class="st0" width="13.4" height="25.3"/>
	<polygon class="st0" points="882.7,436.6 873.4,435.4 870.5,455.5 882.7,458.4 	"/>
	<rect x="915.9" y="437.7" class="st0" width="11.6" height="23.6"/>
	<polygon class="st0" points="982.9,437.7 973,435.4 973,461.3 982.9,461.3 	"/>
	<rect x="973" y="505.6" class="st0" width="9.9" height="32"/>
	<rect x="915.9" y="503.2" class="st0" width="11.6" height="34.4"/>
	<polygon class="st0" points="880.4,503.2 870.5,503.2 870.5,537.6 882.7,537.6 	"/>
	<polygon class="st0" points="836.1,503.2 825.1,500.9 825.1,537.6 838.5,537.6 	"/>
	<rect x="777.3" y="500.9" class="st0" width="11.6" height="36.7"/>
	<rect x="729" y="500.9" class="st0" width="12.2" height="36.7"/>
	<rect x="627.1" y="500.9" class="st0" width="12.2" height="41.3"/>
	<path class="st0" d="M714.4,513.4"/>
	<polyline class="st0" points="714.4,557.2 714.4,513.4 658.5,513.4 658.5,546.9 658.5,557.2 	"/>
	<polygon class="st0" points="654.4,505.6 652.1,513.4 718.5,513.4 718.5,505.6 	"/>
	<polyline class="st0" points="27.1,424 49.3,421.7 68.6,422.9 137.9,415.3 208.3,410.6 309.1,404.8 365.6,403.1 372.7,396.1 
		382.8,393.5 396.1,392 402,392 415.9,392 429.9,396.1 442.4,400.7 507.1,400.2 542,400.7 542,396.1 547.7,391.8 559.5,389.7 
		575.8,388.2 591.8,389.7 604.9,392.9 616,398.4 652.1,398.4 693.5,399 749.9,401.9 808.8,403.7 844.9,406.6 876.6,406.6 
		953.2,415.3 961.9,411.8 971.5,409.2 982.9,408.9 993.7,410.3 999.8,417 	"/>
	<polyline class="st0" points="575.8,274.9 578.1,269.5 585.7,273.8 	"/>
	<line class="st0" x1="76.7" y1="394.9" x2="72.3" y2="554.3"/>
	<polyline class="st0" points="536.8,372.8 542,400.7 539.4,542.3 536.2,560.3 	"/>
	<polyline class="st0" points="610.2,557.2 610.2,397.2 615.4,370.5 	"/>
	<polyline class="st0" points="946.2,548.7 946.2,488.1 953.2,415.3 949.7,386.8 	"/>
	<polyline class="st0" points="362.7,373.9 365.6,403.1 368.5,449.1 365.6,532.9 362.7,542.3 363.2,556.8 	"/>
	<polyline class="st0" points="441.3,371 437.7,399.7 437.7,433.1 432,532.9 436.6,542.3 436.4,560.3 	"/>
	<polyline class="st0" points="550.2,258.1 559.8,251.4 581.6,247 600.9,252.5 610.2,255.7 	"/>
</g>
</svg>
